<svg width="300" height="300" version="1.1" viewBox="0 0 300 300" xmlns="http://www.w3.org/2000/svg">
 <g fill="#2a89c5" opacity=".8" stroke-width=".86902" aria-label="M">
  <path d="m121.85 226.1-33.239-132.11v143.14q0 11.881-5.3748 17.822-5.2334 5.9406-14.003 5.9406-8.4866 0-13.861-5.7992-5.3748-5.9406-5.3748-17.963v-164.07q0-13.579 7.0721-18.246 7.0721-4.8091 19.095-4.8091h13.013q11.74 0 16.973 2.1216 5.3748 2.1216 7.9208 7.6379 2.546 5.5163 5.7992 17.963l30.127 113.58 30.127-113.58q3.2532-12.447 5.7992-17.963 2.546-5.5163 7.7794-7.6379 5.3748-2.1216 17.115-2.1216h13.013q12.023 0 19.095 4.8091 7.0722 4.6676 7.0722 18.246v164.07q0 11.881-5.3748 17.822-5.2334 5.9406-14.144 5.9406-8.3451 0-13.72-5.9406t-5.3748-17.822v-143.14l-33.239 132.11q-3.2532 12.871-5.3748 18.953-1.9802 5.9406-7.4965 10.891t-15.276 4.9505q-7.355 0-12.447-3.2532-5.092-3.1118-7.9208-8.0622-2.8289-4.9505-4.5262-10.891-1.5559-6.082-3.2532-12.588z"/>
 </g>
 <g transform="scale(1.0066 .99347)" fill="#2746b9" opacity=".7" stroke-width=".86306" aria-label="i">
  <path d="m248.32 128.45v110.83q0 11.519-5.4784 17.419-5.4784 5.8998-13.907 5.8998-8.4284 0-13.766-6.0403-5.1975-6.0403-5.1975-17.278v-109.71q0-11.378 5.1975-17.138 5.338-5.7594 13.766-5.7594 8.4284 0 13.907 5.7594 5.4784 5.7594 5.4784 16.014zm-18.964-39.613q-8.0069 0-13.766-4.9165-5.6189-4.9165-5.6189-13.907 0-8.1474 5.7594-13.345 5.8998-5.338 13.626-5.338 7.445 0 13.204 4.7761t5.7594 13.907q0 8.8498-5.6189 13.907-5.6189 4.9165-13.345 4.9165z"/>
 </g>
 <g transform="scale(.9592 1.0425)" fill="#2746b9" opacity=".7" stroke-width=".83356" aria-label="F">
  <path d="m171.79 79.029h-79.368v50.877h66.344q9.2257 0 13.703 4.2058 4.6129 4.0702 4.6129 10.989t-4.6129 10.989-13.703 4.0702h-66.344v65.53q0 12.482-5.6982 18.587-5.5626 5.9696-14.381 5.9696-8.9544 0-14.653-6.1053-5.5626-6.1053-5.5626-18.451v-153.04q0-8.683 2.5778-14.11 2.5778-5.5626 8.0047-8.0047 5.5626-2.5778 14.11-2.5778h94.971q9.6327 0 14.246 4.3415 4.7485 4.2058 4.7485 11.125 0 7.055-4.7485 11.396-4.6129 4.2058-14.246 4.2058z"/>
 </g>
</svg>
